<svg xmlns="http://www.w3.org/2000/svg" width="512" height="512" viewBox="0 0 512 512">
  <defs>
    <linearGradient id="portalGradient" x1="0%" y1="0%" x2="100%" y2="100%">
      <stop offset="0%" stop-color="#FF6B6B" />
      <stop offset="100%" stop-color="#FFD700" />
    </linearGradient>
    <linearGradient id="spiralGradient" x1="0%" y1="0%" x2="100%" y2="100%">
      <stop offset="0%" stop-color="#4ECDC4" />
      <stop offset="100%" stop-color="#7D70BA" />
    </linearGradient>
    <filter id="glow" x="-20%" y="-20%" width="140%" height="140%">
      <feGaussianBlur stdDeviation="10" result="blur" />
      <feComposite in="SourceGraphic" in2="blur" operator="over" />
    </filter>
  </defs>
  
  <!-- 外部圆形和发光效果 -->
  <circle cx="256" cy="256" r="200" fill="url(#portalGradient)" filter="url(#glow)" />
  
  <!-- 内部传送门旋涡 -->
  <path d="M256,256 
      m-150,0 
      a150,150 0 1,0 300,0 
      a150,150 0 1,0 -300,0
      m30,0 
      a120,120 0 1,1 240,0 
      a120,120 0 1,1 -240,0
      m30,0 
      a90,90 0 1,0 180,0 
      a90,90 0 1,0 -180,0
      m30,0 
      a60,60 0 1,1 120,0 
      a60,60 0 1,1 -120,0
      m30,0 
      a30,30 0 1,0 60,0 
      a30,30 0 1,0 -60,0" 
      fill="none" 
      stroke="url(#spiralGradient)" 
      stroke-width="8" />
  
  <!-- 中心的星形 -->
  <polygon points="256,226 269,256 300,256 275,276 283,306 256,286 229,306 237,276 212,256 243,256" 
      fill="#ffffff" 
      filter="url(#glow)" />
</svg> 