<?xml version="1.0" encoding="UTF-8"?>
<svg width="512px" height="512px" viewBox="0 0 512 512" version="1.1" xmlns="http://www.w3.org/2000/svg">
    <title>Crystal Ball</title>
    <defs>
        <linearGradient x1="0%" y1="0%" x2="100%" y2="100%" id="ballGradient">
            <stop stop-color="#9370DB" offset="0%"></stop>
            <stop stop-color="#4B0082" offset="100%"></stop>
        </linearGradient>
        <radialGradient id="shine" cx="30%" cy="30%" r="60%" fx="30%" fy="30%">
            <stop offset="0%" stop-color="white" stop-opacity="0.7"/>
            <stop offset="100%" stop-color="white" stop-opacity="0"/>
        </radialGradient>
        <filter id="glow" x="-20%" y="-20%" width="140%" height="140%">
            <feGaussianBlur stdDeviation="10" result="blur"/>
            <feComposite in="SourceGraphic" in2="blur" operator="over"/>
        </filter>
    </defs>
    <g stroke="none" stroke-width="1" fill="none" fill-rule="evenodd">
        <!-- Base - wooden stand -->
        <path d="M146,370 C146,370 180,400 256,400 C332,400 366,370 366,370 L366,420 C366,420 320,450 256,450 C192,450 146,420 146,420 L146,370 Z" fill="#8B4513" />
        
        <!-- Base rim -->
        <ellipse cx="256" cy="370" rx="110" ry="30" fill="#A0522D" />
        
        <!-- Crystal Ball -->
        <circle cx="256" cy="260" r="160" fill="url(#ballGradient)" filter="url(#glow)" />
        
        <!-- Shine effect -->
        <circle cx="256" cy="260" r="160" fill="url(#shine)" />
        
        <!-- Cosmic elements inside the ball -->
        <g transform="translate(256, 260)" opacity="0.7">
            <!-- Stars -->
            <g fill="#FFD700">
                <circle r="2" cx="-60" cy="-50"></circle>
                <circle r="3" cx="40" cy="-65"></circle>
                <circle r="2" cx="70" cy="-20"></circle>
                <circle r="2" cx="30" cy="55"></circle>
                <circle r="1.5" cx="-20" cy="70"></circle>
                <circle r="2.5" cx="-50" cy="20"></circle>
                <circle r="1" cx="10" cy="-30"></circle>
                <circle r="1" cx="-30" cy="-70"></circle>
                <circle r="1.5" cx="65" cy="45"></circle>
            </g>
            
            <!-- Constellations -->
            <g stroke="#FFD700" stroke-width="0.7" opacity="0.8">
                <line x1="-60" y1="-50" x2="40" y2="-65"></line>
                <line x1="40" y1="-65" x2="70" y2="-20"></line>
                <line x1="70" y1="-20" x2="30" y2="55"></line>
                <line x1="30" y1="55" x2="-20" y2="70"></line>
                <line x1="-20" y1="70" x2="-50" y2="20"></line>
                <line x1="-50" y1="20" x2="-60" y2="-50"></line>
            </g>
            
            <!-- Mystical symbols -->
            <g fill="#FFD700" opacity="0.9">
                <!-- Pentagram -->
                <path d="M-30,-10 L-20,-40 L0,-50 L20,-40 L30,-10 L10,10 L15,40 L-15,40 L-10,10 Z" stroke="#FFD700" fill="none" stroke-width="0.8"></path>
                
                <!-- Moon -->
                <path d="M-80,0 A40,40 0 1,1 -80,1 A30,30 0 1,0 -80,0 Z" transform="scale(0.4) translate(100, -100)"></path>
            </g>
            
            <!-- Swirling mist -->
            <path d="M-50,-20 C-30,-40 10,-30 20,0 C30,30 70,30 60,0 C50,-30 30,-40 10,-20 C-10,0 -30,30 -40,20 C-50,10 -40,-10 -20,-10 C0,-10 10,10 0,20 C-10,30 -30,20 -20,10 C-10,0 10,0 20,10 C30,20 20,40 0,40" 
                  stroke="#E6E6FA" fill="none" stroke-width="1" opacity="0.4"></path>
        </g>
        
        <!-- Light reflections -->
        <circle cx="210" cy="200" r="15" fill="white" opacity="0.4"></circle>
        <circle cx="230" cy="180" r="8" fill="white" opacity="0.5"></circle>
    </g>
</svg> 