<svg xmlns="http://www.w3.org/2000/svg" viewBox="0 0 24 24" fill="none" stroke="currentColor" stroke-width="1.5" stroke-linecap="round" stroke-linejoin="round">
  <path d="M12 2a5 5 0 0 1 5 5v3a5 5 0 0 1-10 0V7a5 5 0 0 1 5-5z" fill="transparent"/>
  <path d="M9 17v1a3 3 0 0 0 6 0v-1" fill="transparent"/>
  <path d="M8 14h8" fill="transparent"/>
  <path d="M7 9h2" fill="transparent"/>
  <path d="M15 9h2" fill="transparent"/>
  <circle cx="9" cy="12" r="1" fill="currentColor"/>
  <circle cx="15" cy="12" r="1" fill="currentColor"/>
  <path d="M7 4.5c-.5 0-2 .5-2 2" fill="transparent"/>
  <path d="M19 4.5c.5 0 2 .5 2 2" fill="transparent"/>
  <path d="M12 16l.5 3" fill="transparent"/>
</svg> 